<?xml version="1.0" encoding="UTF-8"?>
<svg version="1.1" xmlns="http://www.w3.org/2000/svg" width="300" height="300" viewBox="-1.8 -0.2 3.6 3.6">
  <polygon points="0,0 1.6,2.7713 -1.6,2.7713" fill="none" stroke="gray" stroke-width="0.1"/>
  <polygon points="0,0 0.5,0.8660 -0.5,0.8660" fill="none" stroke="blue" stroke-width="0.02"/>
  <polygon points="-0.5,0.8660 -1,1.7321 0,1.7321" fill="none" stroke="blue" stroke-width="0.02"/>
  <polygon points="0.5,0.8660 1,1.7321 0,1.7321" fill="none" stroke="blue" stroke-width="0.02"/>

  <polygon points="-1.1,1.9053 -1.6,2.7713 -0.6,2.7713" fill="none" stroke="blue" stroke-width="0.02"/>
  <polygon points="-0.7,2.5981 -1.2,1.7321 -0.2,1.7321" fill="none" stroke="blue" stroke-width="0.02"/>
  <polygon points="-0.3,1.9053 -0.8,2.7713 0.2,2.7713" fill="none" stroke="blue" stroke-width="0.02"/>
  <polygon points="0.1,2.5981 -0.4,1.7321 0.6,1.7321" fill="none" stroke="blue" stroke-width="0.02"/>
  <polygon points="0.5,1.9053 0,2.7713 1,2.7713" fill="none" stroke="blue" stroke-width="0.02"/>

  <polygon points="0.9,2.5981 0.4,1.7321 1.4,1.7321" fill="none" stroke="blue" stroke-width="0.02"/>
  <polygon points="1.3,1.9053 0.8,2.7713 1.8,2.7713" fill="none" stroke="blue" stroke-width="0.02"/>
</svg>
