<?xml version="1.0" encoding="UTF-8"?>
<svg version="1.1" xmlns="http://www.w3.org/2000/svg" width="300" height="300" viewBox="-1.2 -1.2 2.4 2.4">
  <circle cx="0" cy="0" r="1" fill="blue"/>
  <line x1="0" y1="0" x2="0.5" y2="-0.866" stroke="black" stroke-width="0.02"/>
  <line x1="0" y1="0" x2="-0.5" y2="-0.866" stroke="black" stroke-width="0.02"/>
  <ellipse cx="0" cy="-0.577" rx="0.577" ry="0.577" stroke="red" stroke-width="0.02" fill="none"/>
  <line x1="0" y1="0" x2="-0.5" y2="-0.866" stroke="black" stroke-width="0.02" transform="rotate(60)"/>
  <ellipse cx="0" cy="-0.577" rx="0.577" ry="0.577" stroke="red" stroke-width="0.02" fill="none" transform="rotate(60)"/>
  <line x1="0" y1="0" x2="-0.5" y2="-0.866" stroke="black" stroke-width="0.02" transform="rotate(120)"/>
  <ellipse cx="0" cy="-0.577" rx="0.577" ry="0.577" stroke="red" stroke-width="0.02" fill="none" transform="rotate(120)"/>
  <line x1="0" y1="0" x2="-0.5" y2="-0.866" stroke="black" stroke-width="0.02" transform="rotate(180)"/>
  <ellipse cx="0" cy="-0.577" rx="0.577" ry="0.577" stroke="red" stroke-width="0.02" fill="none" transform="rotate(180)"/>
  <line x1="0" y1="0" x2="-0.5" y2="-0.866" stroke="black" stroke-width="0.02" transform="rotate(240)"/>
  <ellipse cx="0" cy="-0.577" rx="0.577" ry="0.577" stroke="red" stroke-width="0.02" fill="none" transform="rotate(240)"/>
  <line x1="0" y1="0" x2="-0.5" y2="-0.866" stroke="black" stroke-width="0.02" transform="rotate(300)"/>
  <ellipse cx="0" cy="-0.577" rx="0.577" ry="0.577" stroke="red" stroke-width="0.02" fill="none" transform="rotate(300)"/>
</svg>
