<?xml version="1.0" encoding="UTF-8"?>
<svg version="1.1" xmlns="http://www.w3.org/2000/svg" width="300" height="150" viewBox="-10.5 -5.5 21 11">
  <rect width="20" height="10" x="-10" y="-5" fill="none" stroke="black" stroke-width="0.1"/>

  <line x1="-10" y1="-5" x2="0" y2="1.66667" stroke="yellow" stroke-width="0.05"/>
  <line x1="10" y1="-5" x2="0" y2="1.66667" stroke="yellow" stroke-width="0.05"/>
  <line x1="0" y1="5" x2="0" y2="1.66667" stroke="yellow" stroke-width="0.05"/>

  <line x1="-10" y1="5" x2="0" y2="-1.66667" stroke="red" stroke-width="0.05"/>
  <line x1="10" y1="5" x2="0" y2="-1.66667" stroke="red" stroke-width="0.05"/>
  <line x1="0" y1="-5" x2="0" y2="-1.66667" stroke="red" stroke-width="0.05"/>

  <line x1="-10" y1="-5" x2="1.66667" y2="0" stroke="green" stroke-width="0.05"/>
  <line x1="-10" y1="5" x2="1.66667" y2="0" stroke="green" stroke-width="0.05"/>
  <line x1="10" y1="0" x2="1.66667" y2="0" stroke="green" stroke-width="0.05"/>

  <line x1="10" y1="-5" x2="-1.66667" y2="0" stroke="blue" stroke-width="0.05"/>
  <line x1="10" y1="5" x2="-1.66667" y2="0" stroke="blue" stroke-width="0.05"/>
  <line x1="-10" y1="0" x2="-1.66667" y2="0" stroke="blue" stroke-width="0.05"/>

  <polygon points="0.0,1.666666666666667
		   -0.24934383202099752,1.5748031496062982
		   -0.4945054945054945,1.4652014652014653
		   -0.7306590257879648,1.337153772683858
		   -0.9523809523809526,1.1904761904761907
		   -1.1538461538461533,1.0256410256410255
		   -1.3291139240506329,0.8438818565400839
		   -1.4724919093851128,0.6472491909385116
		   -1.578947368421053,0.4385964912280702
		   -1.6445182724252483,0.22148394241417524
		   -1.666666666666666,0.0
		   -1.6445182724252483,-0.22148394241417524
		   -1.578947368421053,-0.4385964912280702
		   -1.4724919093851128,-0.6472491909385116
		   -1.3291139240506329,-0.8438818565400839
		   -1.1538461538461533,-1.025641025641026
		   -0.9523809523809526,-1.1904761904761902
		   -0.7306590257879648,-1.337153772683859
		   -0.4945054945054945,-1.4652014652014649
		   -0.24934383202099752,-1.574803149606299
                   0.0,-1.6666666666666665
		   0.24934383202099752,-1.574803149606299
		   0.4945054945054945,-1.4652014652014649
		   0.7306590257879648,-1.337153772683859
		   0.9523809523809526,-1.1904761904761902
		   1.1538461538461533,-1.025641025641026
		   1.3291139240506329,-0.8438818565400839
		   1.4724919093851128,-0.6472491909385116
		   1.578947368421053,-0.4385964912280702
		   1.6445182724252483,-0.22148394241417524
		   1.666666666666666,0.0
		   1.6445182724252483,0.22148394241417524
		   1.578947368421053,0.4385964912280702
		   1.4724919093851128,0.6472491909385116
		   1.3291139240506329,0.8438818565400839
		   1.1538461538461533,1.0256410256410255
		   0.9523809523809526,1.1904761904761907
		   0.7306590257879648,1.337153772683858
		   0.4945054945054945,1.4652014652014653
		   0.24934383202099752,1.5748031496062982
		   0.0,1.666666666666667"
	   fill="none" stroke="black" stroke-width="0.08"/>
</svg>
