<?xml version="1.0" encoding="UTF-8"?>
<svg version="1.1" xmlns="http://www.w3.org/2000/svg" width="400" height="400" viewBox="-0.2 -0.2 8.4 8.4">
  <rect width="1" height="1" x="0" y="0" fill="white"/>
  <rect width="1" height="1" x="1" y="0" fill="gray"/>
  <rect width="1" height="1" x="2" y="0" fill="white"/>
  <rect width="1" height="1" x="3" y="0" fill="gray"/>
  <rect width="1" height="1" x="4" y="0" fill="white"/>
  <rect width="1" height="1" x="5" y="0" fill="gray"/>
  <rect width="1" height="1" x="6" y="0" fill="white"/>
  <rect width="1" height="1" x="7" y="0" fill="gray"/>
  <rect width="1" height="1" x="0" y="1" fill="gray"/>
  <rect width="1" height="1" x="1" y="1" fill="white"/>
  <rect width="1" height="1" x="2" y="1" fill="gray"/>
  <rect width="1" height="1" x="3" y="1" fill="white"/>
  <rect width="1" height="1" x="4" y="1" fill="gray"/>
  <rect width="1" height="1" x="5" y="1" fill="white"/>
  <rect width="1" height="1" x="6" y="1" fill="gray"/>
  <rect width="1" height="1" x="7" y="1" fill="white"/>
  <rect width="1" height="1" x="0" y="2" fill="white"/>
  <rect width="1" height="1" x="1" y="2" fill="gray"/>
  <rect width="1" height="1" x="2" y="2" fill="white"/>
  <rect width="1" height="1" x="3" y="2" fill="gray"/>
  <rect width="1" height="1" x="4" y="2" fill="white"/>
  <rect width="1" height="1" x="5" y="2" fill="gray"/>
  <rect width="1" height="1" x="6" y="2" fill="white"/>
  <rect width="1" height="1" x="7" y="2" fill="gray"/>
  <rect width="1" height="1" x="0" y="3" fill="gray"/>
  <rect width="1" height="1" x="1" y="3" fill="white"/>
  <rect width="1" height="1" x="2" y="3" fill="gray"/>
  <rect width="1" height="1" x="3" y="3" fill="white"/>
  <rect width="1" height="1" x="4" y="3" fill="gray"/>
  <rect width="1" height="1" x="5" y="3" fill="white"/>
  <rect width="1" height="1" x="6" y="3" fill="gray"/>
  <rect width="1" height="1" x="7" y="3" fill="white"/>
  <rect width="1" height="1" x="0" y="4" fill="white"/>
  <rect width="1" height="1" x="1" y="4" fill="gray"/>
  <rect width="1" height="1" x="2" y="4" fill="white"/>
  <rect width="1" height="1" x="3" y="4" fill="gray"/>
  <rect width="1" height="1" x="4" y="4" fill="white"/>
  <rect width="1" height="1" x="5" y="4" fill="gray"/>
  <rect width="1" height="1" x="6" y="4" fill="white"/>
  <rect width="1" height="1" x="7" y="4" fill="gray"/>
  <rect width="1" height="1" x="0" y="5" fill="gray"/>
  <rect width="1" height="1" x="1" y="5" fill="white"/>
  <rect width="1" height="1" x="2" y="5" fill="gray"/>
  <rect width="1" height="1" x="3" y="5" fill="white"/>
  <rect width="1" height="1" x="4" y="5" fill="gray"/>
  <rect width="1" height="1" x="5" y="5" fill="white"/>
  <rect width="1" height="1" x="6" y="5" fill="gray"/>
  <rect width="1" height="1" x="7" y="5" fill="white"/>
  <rect width="1" height="1" x="0" y="6" fill="white"/>
  <rect width="1" height="1" x="1" y="6" fill="gray"/>
  <rect width="1" height="1" x="2" y="6" fill="white"/>
  <rect width="1" height="1" x="3" y="6" fill="gray"/>
  <rect width="1" height="1" x="4" y="6" fill="white"/>
  <rect width="1" height="1" x="5" y="6" fill="gray"/>
  <rect width="1" height="1" x="6" y="6" fill="white"/>
  <rect width="1" height="1" x="7" y="6" fill="gray"/>
  <rect width="1" height="1" x="0" y="7" fill="gray"/>
  <rect width="1" height="1" x="1" y="7" fill="white"/>
  <rect width="1" height="1" x="2" y="7" fill="gray"/>
  <rect width="1" height="1" x="3" y="7" fill="white"/>
  <rect width="1" height="1" x="4" y="7" fill="gray"/>
  <rect width="1" height="1" x="5" y="7" fill="white"/>
  <rect width="1" height="1" x="6" y="7" fill="gray"/>
  <rect width="1" height="1" x="7" y="7" fill="white"/>

  <rect width="1" height="1" x="0" y="0" fill="none" stroke="black" stroke-width="0.05"/>
  <rect width="1" height="1" x="1" y="0" fill="none" stroke="black" stroke-width="0.05"/>
  <rect width="1" height="1" x="2" y="0" fill="none" stroke="black" stroke-width="0.05"/>
  <rect width="1" height="1" x="3" y="0" fill="none" stroke="black" stroke-width="0.05"/>
  <rect width="1" height="1" x="4" y="0" fill="none" stroke="black" stroke-width="0.05"/>
  <rect width="1" height="1" x="5" y="0" fill="none" stroke="black" stroke-width="0.05"/>
  <rect width="1" height="1" x="6" y="0" fill="none" stroke="black" stroke-width="0.05"/>
  <rect width="1" height="1" x="7" y="0" fill="none" stroke="black" stroke-width="0.05"/>
  <rect width="1" height="1" x="0" y="1" fill="none" stroke="black" stroke-width="0.05"/>
  <rect width="1" height="1" x="1" y="1" fill="none" stroke="black" stroke-width="0.05"/>
  <rect width="1" height="1" x="2" y="1" fill="none" stroke="black" stroke-width="0.05"/>
  <rect width="1" height="1" x="3" y="1" fill="none" stroke="black" stroke-width="0.05"/>
  <rect width="1" height="1" x="4" y="1" fill="none" stroke="black" stroke-width="0.05"/>
  <rect width="1" height="1" x="5" y="1" fill="none" stroke="black" stroke-width="0.05"/>
  <rect width="1" height="1" x="6" y="1" fill="none" stroke="black" stroke-width="0.05"/>
  <rect width="1" height="1" x="7" y="1" fill="none" stroke="black" stroke-width="0.05"/>
  <rect width="1" height="1" x="0" y="2" fill="none" stroke="black" stroke-width="0.05"/>
  <rect width="1" height="1" x="1" y="2" fill="none" stroke="black" stroke-width="0.05"/>
  <rect width="1" height="1" x="2" y="2" fill="none" stroke="black" stroke-width="0.05"/>
  <rect width="1" height="1" x="3" y="2" fill="none" stroke="black" stroke-width="0.05"/>
  <rect width="1" height="1" x="4" y="2" fill="none" stroke="black" stroke-width="0.05"/>
  <rect width="1" height="1" x="5" y="2" fill="none" stroke="black" stroke-width="0.05"/>
  <rect width="1" height="1" x="6" y="2" fill="none" stroke="black" stroke-width="0.05"/>
  <rect width="1" height="1" x="7" y="2" fill="none" stroke="black" stroke-width="0.05"/>
  <rect width="1" height="1" x="0" y="3" fill="none" stroke="black" stroke-width="0.05"/>
  <rect width="1" height="1" x="1" y="3" fill="none" stroke="black" stroke-width="0.05"/>
  <rect width="1" height="1" x="2" y="3" fill="none" stroke="black" stroke-width="0.05"/>
  <rect width="1" height="1" x="3" y="3" fill="none" stroke="black" stroke-width="0.05"/>
  <rect width="1" height="1" x="4" y="3" fill="none" stroke="black" stroke-width="0.05"/>
  <rect width="1" height="1" x="5" y="3" fill="none" stroke="black" stroke-width="0.05"/>
  <rect width="1" height="1" x="6" y="3" fill="none" stroke="black" stroke-width="0.05"/>
  <rect width="1" height="1" x="7" y="3" fill="none" stroke="black" stroke-width="0.05"/>
  <rect width="1" height="1" x="0" y="4" fill="none" stroke="black" stroke-width="0.05"/>
  <rect width="1" height="1" x="1" y="4" fill="none" stroke="black" stroke-width="0.05"/>
  <rect width="1" height="1" x="2" y="4" fill="none" stroke="black" stroke-width="0.05"/>
  <rect width="1" height="1" x="3" y="4" fill="none" stroke="black" stroke-width="0.05"/>
  <rect width="1" height="1" x="4" y="4" fill="none" stroke="black" stroke-width="0.05"/>
  <rect width="1" height="1" x="5" y="4" fill="none" stroke="black" stroke-width="0.05"/>
  <rect width="1" height="1" x="6" y="4" fill="none" stroke="black" stroke-width="0.05"/>
  <rect width="1" height="1" x="7" y="4" fill="none" stroke="black" stroke-width="0.05"/>
  <rect width="1" height="1" x="0" y="5" fill="none" stroke="black" stroke-width="0.05"/>
  <rect width="1" height="1" x="1" y="5" fill="none" stroke="black" stroke-width="0.05"/>
  <rect width="1" height="1" x="2" y="5" fill="none" stroke="black" stroke-width="0.05"/>
  <rect width="1" height="1" x="3" y="5" fill="none" stroke="black" stroke-width="0.05"/>
  <rect width="1" height="1" x="4" y="5" fill="none" stroke="black" stroke-width="0.05"/>
  <rect width="1" height="1" x="5" y="5" fill="none" stroke="black" stroke-width="0.05"/>
  <rect width="1" height="1" x="6" y="5" fill="none" stroke="black" stroke-width="0.05"/>
  <rect width="1" height="1" x="7" y="5" fill="none" stroke="black" stroke-width="0.05"/>
  <rect width="1" height="1" x="0" y="6" fill="none" stroke="black" stroke-width="0.05"/>
  <rect width="1" height="1" x="1" y="6" fill="none" stroke="black" stroke-width="0.05"/>
  <rect width="1" height="1" x="2" y="6" fill="none" stroke="black" stroke-width="0.05"/>
  <rect width="1" height="1" x="3" y="6" fill="none" stroke="black" stroke-width="0.05"/>
  <rect width="1" height="1" x="4" y="6" fill="none" stroke="black" stroke-width="0.05"/>
  <rect width="1" height="1" x="5" y="6" fill="none" stroke="black" stroke-width="0.05"/>
  <rect width="1" height="1" x="6" y="6" fill="none" stroke="black" stroke-width="0.05"/>
  <rect width="1" height="1" x="7" y="6" fill="none" stroke="black" stroke-width="0.05"/>
  <rect width="1" height="1" x="0" y="7" fill="none" stroke="black" stroke-width="0.05"/>
  <rect width="1" height="1" x="1" y="7" fill="none" stroke="black" stroke-width="0.05"/>
  <rect width="1" height="1" x="2" y="7" fill="none" stroke="black" stroke-width="0.05"/>
  <rect width="1" height="1" x="3" y="7" fill="none" stroke="black" stroke-width="0.05"/>
  <rect width="1" height="1" x="4" y="7" fill="none" stroke="black" stroke-width="0.05"/>
  <rect width="1" height="1" x="5" y="7" fill="none" stroke="black" stroke-width="0.05"/>
  <rect width="1" height="1" x="6" y="7" fill="none" stroke="black" stroke-width="0.05"/>
  <rect width="1" height="1" x="7" y="7" fill="none" stroke="black" stroke-width="0.05"/>

  <line x1="0" y1="8" x2="1" y2="7.5143" stroke="red" stroke-width="0.02"/>

  <line x1="1" y1="7.5143" x2="1.9262" y2="7" stroke="red" stroke-width="0.02"/>
  <line x1="1.9262" y1="7" x2="2" y2="6.9421" stroke="red" stroke-width="0.02"/>
  <line x1="2" y1="6.9421" x2="3" y2="6" stroke="red" stroke-width="0.02"/>
  <line x1="3" y1="6" x2="6" y2="3" stroke="red" stroke-width="0.02"/>
  <line x1="6" y1="3" x2="6.9421" y2="2" stroke="red" stroke-width="0.02"/>
  <line x1="6.9421" y1="2" x2="7" y2="1.9262" stroke="red" stroke-width="0.02"/>
  <line x1="7" y1="1.9262" x2="7.5143" y2="1" stroke="red" stroke-width="0.02"/>
  <line x1="7.5143" y1="1" x2="8" y2="0" stroke="red" stroke-width="0.02"/>

  <circle cx="0" cy="8" r="0.1" fill="blue" stroke="black" stroke-width="0.05"/>
  <circle cx="8" cy="0" r="0.1" fill="blue" stroke="black" stroke-width="0.05"/>
</svg>
