<?xml version="1.0" encoding="UTF-8"?>
<svg version="1.1" xmlns="http://www.w3.org/2000/svg" width="900" height="600" viewBox="-1.7 -1.2 3.4 2.4">

  <g transform="translate(-1 -0.5) scale(0.35)">
  <circle cx="0" cy="0" r="1" fill="blue"/>
  <line x1="-1" y1="0" x2="1" y2="0" stroke="black" stroke-width="0.02"/>
  <ellipse cx="0" cy="-0.3333" rx="1.1547" ry="0.6667" stroke="red"
	   stroke-width="0.02" fill="none"/>
  <ellipse cx="0" cy="0.3333" rx="1.1547" ry="0.6667" stroke="red"
	   stroke-width="0.02" fill="none"/>
  <text x="-1" y="-1.2" fill="black" font-size="0.5">N=2</text>
  </g>

  <g transform="translate(0 -0.5) scale(0.35)">
  <circle cx="0" cy="0" r="1" fill="blue"/>
  <line x1="0" y1="0" x2="0.866" y2="-0.5" stroke="black" stroke-width="0.02"/>
  <line x1="0" y1="0" x2="-0.866" y2="-0.5" stroke="black" stroke-width="0.02"/>
  <line x1="0" y1="0" x2="0" y2="1" stroke="black" stroke-width="0.02"/>
  <ellipse cx="0" cy="-0.5" rx="0.866" ry="0.5" stroke="red"
	   stroke-width="0.02" fill="none"/>
  <ellipse cx="0" cy="-0.5" rx="0.866" ry="0.5" stroke="red"
	   stroke-width="0.02" fill="none" transform="rotate(120)"/>
  <ellipse cx="0" cy="-0.5" rx="0.866" ry="0.5" stroke="red"
	   stroke-width="0.02" fill="none" transform="rotate(-120)"/>
  <text x="-1" y="-1.2" fill="black" font-size="0.5">N=3</text>
  </g>

  <g transform="translate(1 -0.5) scale(0.35)">
  <circle cx="0" cy="0" r="1" fill="blue"/>
  <line x1="0" y1="0" x2="0.707" y2="-0.707" stroke="black" stroke-width="0.02"/>
  <line x1="0" y1="0" x2="-0.707" y2="-0.707" stroke="black" stroke-width="0.02"/>
  <ellipse cx="0" cy="-0.5" rx="0.777" ry="0.5" stroke="red" stroke-width="0.02" fill="none"/>
  <line x1="0" y1="0" x2="-0.707" y2="-0.707" stroke="black" stroke-width="0.02" transform="rotate(90)"/>
  <ellipse cx="0" cy="-0.5" rx="0.777" ry="0.5" stroke="red" stroke-width="0.02" fill="none" transform="rotate(90)"/>
  <line x1="0" y1="0" x2="-0.707" y2="-0.707" stroke="black" stroke-width="0.02" transform="rotate(180)"/>
  <ellipse cx="0" cy="-0.5" rx="0.777" ry="0.5" stroke="red" stroke-width="0.02" fill="none" transform="rotate(180)"/>
  <line x1="0" y1="0" x2="-0.707" y2="-0.707" stroke="black" stroke-width="0.02" transform="rotate(270)"/>
  <ellipse cx="0" cy="-0.5" rx="0.777" ry="0.5" stroke="red" stroke-width="0.02" fill="none" transform="rotate(270)"/>
  <text x="-1" y="-1.2" fill="black" font-size="0.5">N=4</text>
  </g>

  <g transform="translate(-1 0.5) scale(0.35)">
  <circle cx="0" cy="0" r="1" fill="blue"/>
  <line x1="0" y1="0" x2="0.587" y2="-0.809" stroke="black" stroke-width="0.02"/>
  <line x1="0" y1="0" x2="-0.587" y2="-0.809" stroke="black" stroke-width="0.02"/>
  <ellipse cx="0" cy="-0.539" rx="0.679" ry="0.539" stroke="red" stroke-width="0.02" fill="none"/>
  <line x1="0" y1="0" x2="-0.587" y2="-0.809" stroke="black" stroke-width="0.02" transform="rotate(72)"/>
  <ellipse cx="0" cy="-0.539" rx="0.679" ry="0.539" stroke="red" stroke-width="0.02" fill="none" transform="rotate(72)"/>
  <line x1="0" y1="0" x2="-0.587" y2="-0.809" stroke="black" stroke-width="0.02" transform="rotate(144)"/>
  <ellipse cx="0" cy="-0.539" rx="0.679" ry="0.539" stroke="red" stroke-width="0.02" fill="none" transform="rotate(144)"/>
  <line x1="0" y1="0" x2="-0.587" y2="-0.809" stroke="black" stroke-width="0.02" transform="rotate(216)"/>
  <ellipse cx="0" cy="-0.539" rx="0.679" ry="0.539" stroke="red" stroke-width="0.02" fill="none" transform="rotate(216)"/>
  <line x1="0" y1="0" x2="-0.587" y2="-0.809" stroke="black" stroke-width="0.02" transform="rotate(288)"/>
  <ellipse cx="0" cy="-0.539" rx="0.679" ry="0.539" stroke="red" stroke-width="0.02" fill="none" transform="rotate(288)"/>
  <text x="-1" y="-1.2" fill="black" font-size="0.5">N=5</text>
  </g>

  <g transform="translate(0 0.5) scale(0.35)">
  <circle cx="0" cy="0" r="1" fill="blue"/>
  <line x1="0" y1="0" x2="0.5" y2="-0.866" stroke="black" stroke-width="0.02"/>
  <line x1="0" y1="0" x2="-0.5" y2="-0.866" stroke="black" stroke-width="0.02"/>
  <ellipse cx="0" cy="-0.577" rx="0.577" ry="0.577" stroke="red" stroke-width="0.02" fill="none"/>
  <line x1="0" y1="0" x2="-0.5" y2="-0.866" stroke="black" stroke-width="0.02" transform="rotate(60)"/>
  <ellipse cx="0" cy="-0.577" rx="0.577" ry="0.577" stroke="red" stroke-width="0.02" fill="none" transform="rotate(60)"/>
  <line x1="0" y1="0" x2="-0.5" y2="-0.866" stroke="black" stroke-width="0.02" transform="rotate(120)"/>
  <ellipse cx="0" cy="-0.577" rx="0.577" ry="0.577" stroke="red" stroke-width="0.02" fill="none" transform="rotate(120)"/>
  <line x1="0" y1="0" x2="-0.5" y2="-0.866" stroke="black" stroke-width="0.02" transform="rotate(180)"/>
  <ellipse cx="0" cy="-0.577" rx="0.577" ry="0.577" stroke="red" stroke-width="0.02" fill="none" transform="rotate(180)"/>
  <line x1="0" y1="0" x2="-0.5" y2="-0.866" stroke="black" stroke-width="0.02" transform="rotate(240)"/>
  <ellipse cx="0" cy="-0.577" rx="0.577" ry="0.577" stroke="red" stroke-width="0.02" fill="none" transform="rotate(240)"/>
  <line x1="0" y1="0" x2="-0.5" y2="-0.866" stroke="black" stroke-width="0.02" transform="rotate(300)"/>
  <ellipse cx="0" cy="-0.577" rx="0.577" ry="0.577" stroke="red" stroke-width="0.02" fill="none" transform="rotate(300)"/>
  <text x="-1" y="-1.2" fill="black" font-size="0.5">N=6</text>
  </g>

  <g transform="translate(1 0.5) scale(0.35)">
  <circle cx="0" cy="0" r="1" fill="blue"/>
  <line x1="0" y1="0" x2="0.309" y2="-0.951" stroke="black" stroke-width="0.02"/>
  <line x1="0" y1="0" x2="-0.309" y2="-0.951" stroke="black" stroke-width="0.02"/>
  <ellipse cx="0" cy="-0.634" rx="0.357" ry="0.634" stroke="red" stroke-width="0.02" fill="none"/>
  <line x1="0" y1="0" x2="-0.309" y2="-0.951" stroke="black" stroke-width="0.02" transform="rotate(36)"/>
  <ellipse cx="0" cy="-0.634" rx="0.357" ry="0.634" stroke="red" stroke-width="0.02" fill="none" transform="rotate(36)"/>
  <line x1="0" y1="0" x2="-0.309" y2="-0.951" stroke="black" stroke-width="0.02" transform="rotate(72)"/>
  <ellipse cx="0" cy="-0.634" rx="0.357" ry="0.634" stroke="red" stroke-width="0.02" fill="none" transform="rotate(72)"/>
  <line x1="0" y1="0" x2="-0.309" y2="-0.951" stroke="black" stroke-width="0.02" transform="rotate(108)"/>
  <ellipse cx="0" cy="-0.634" rx="0.357" ry="0.634" stroke="red" stroke-width="0.02" fill="none" transform="rotate(108)"/>
  <line x1="0" y1="0" x2="-0.309" y2="-0.951" stroke="black" stroke-width="0.02" transform="rotate(144)"/>
  <ellipse cx="0" cy="-0.634" rx="0.357" ry="0.634" stroke="red" stroke-width="0.02" fill="none" transform="rotate(144)"/>
  <line x1="0" y1="0" x2="-0.309" y2="-0.951" stroke="black" stroke-width="0.02" transform="rotate(180)"/>
  <ellipse cx="0" cy="-0.634" rx="0.357" ry="0.634" stroke="red" stroke-width="0.02" fill="none" transform="rotate(180)"/>
  <line x1="0" y1="0" x2="-0.309" y2="-0.951" stroke="black" stroke-width="0.02" transform="rotate(216)"/>
  <ellipse cx="0" cy="-0.634" rx="0.357" ry="0.634" stroke="red" stroke-width="0.02" fill="none" transform="rotate(216)"/>
  <line x1="0" y1="0" x2="-0.309" y2="-0.951" stroke="black" stroke-width="0.02" transform="rotate(252)"/>
  <ellipse cx="0" cy="-0.634" rx="0.357" ry="0.634" stroke="red" stroke-width="0.02" fill="none" transform="rotate(252)"/>
  <line x1="0" y1="0" x2="-0.309" y2="-0.951" stroke="black" stroke-width="0.02" transform="rotate(288)"/>
  <ellipse cx="0" cy="-0.634" rx="0.357" ry="0.634" stroke="red" stroke-width="0.02" fill="none" transform="rotate(288)"/>
  <line x1="0" y1="0" x2="-0.309" y2="-0.951" stroke="black" stroke-width="0.02" transform="rotate(324)"/>
  <ellipse cx="0" cy="-0.634" rx="0.357" ry="0.634" stroke="red" stroke-width="0.02" fill="none" transform="rotate(324)"/>
  <text x="-1" y="-1.2" fill="black" font-size="0.5">N=10</text>
  </g>
</svg>
