<?xml version="1.0" encoding="UTF-8"?>
<svg version="1.1" xmlns="http://www.w3.org/2000/svg" width="400" height="400" viewBox="-20 -20 40 40">
<line x1="-18" y1="-18" x2="-18" y2="18" stroke="black" stroke-width="0.2"/>
<line x1="-18" y1="18" x2="18" y2="18" stroke="black" stroke-width="0.2"/>
<line x1="18" y1="18" x2="18" y2="-18" stroke="black" stroke-width="0.2"/>
<line x1="18" y1="-18" x2="-18" y2="-18" stroke="black" stroke-width="0.2"/>

<line x1="-18" y1="-14" x2="18" y2="-14" stroke="black" stroke-width="0.1"/>
  <line x1="-6" y1="-18" x2="-6" y2="-16" stroke="black" stroke-width="0.1"/>
  <line x1="-6" y1="-16" x2="6" y2="-16" stroke="black" stroke-width="0.1"/>
  <line x1="6" y1="-16" x2="6" y2="-14" stroke="black" stroke-width="0.1"/>

<line x1="-18" y1="-10" x2="18" y2="-10" stroke="black" stroke-width="0.1"/>
  <line x1="-6" y1="-14" x2="-6" y2="-12" stroke="black" stroke-width="0.1"/>
  <line x1="-6" y1="-12" x2="6" y2="-12" stroke="black" stroke-width="0.1"/>
  <line x1="6" y1="-12" x2="6" y2="-10" stroke="black" stroke-width="0.1"/>

<line x1="-18" y1="-6" x2="18" y2="-6" stroke="black" stroke-width="0.1"/>
  <line x1="-6" y1="-10" x2="-6" y2="-8" stroke="black" stroke-width="0.1"/>
  <line x1="-6" y1="-8" x2="6" y2="-8" stroke="black" stroke-width="0.1"/>
  <line x1="6" y1="-8" x2="6" y2="-6" stroke="black" stroke-width="0.1"/>

<line x1="-18" y1="0" x2="6" y2="0" stroke="black" stroke-width="0.1"/>
  <line x1="-18" y1="-2" x2="-6" y2="-2" stroke="black" stroke-width="0.1"/>
  <line x1="-6" y1="-4" x2="-6" y2="-2" stroke="black" stroke-width="0.1"/>
  <line x1="-6" y1="-4" x2="6" y2="-4" stroke="black" stroke-width="0.1"/>

<line x1="-18" y1="6" x2="6" y2="6" stroke="black" stroke-width="0.1"/>
  <line x1="-18" y1="4" x2="-6" y2="4" stroke="black" stroke-width="0.1"/>
  <line x1="-6" y1="2" x2="-6" y2="4" stroke="black" stroke-width="0.1"/>
  <line x1="-6" y1="2" x2="6" y2="2" stroke="black" stroke-width="0.1"/>

<line x1="-18" y1="12" x2="6" y2="12" stroke="black" stroke-width="0.1"/>
  <line x1="-18" y1="10" x2="-6" y2="10" stroke="black" stroke-width="0.1"/>
  <line x1="-6" y1="8" x2="-6" y2="10" stroke="black" stroke-width="0.1"/>
  <line x1="-6" y1="8" x2="6" y2="8" stroke="black" stroke-width="0.1"/>

  <line x1="-18" y1="16" x2="-6" y2="16" stroke="black" stroke-width="0.1"/>
  <line x1="-6" y1="14" x2="-6" y2="16" stroke="black" stroke-width="0.1"/>
  <line x1="-6" y1="14" x2="6" y2="14" stroke="black" stroke-width="0.1"/>

<line x1="6" y1="-6" x2="6" y2="18" stroke="black" stroke-width="0.1"/>
  <line x1="8" y1="-6" x2="8" y2="6" stroke="black" stroke-width="0.1"/>
  <line x1="8" y1="6" x2="10" y2="6" stroke="black" stroke-width="0.1"/>
  <line x1="10" y1="6" x2="10" y2="18" stroke="black" stroke-width="0.1"/>
<line x1="12" y1="-6" x2="12" y2="18" stroke="black" stroke-width="0.1"/>
  <line x1="14" y1="-6" x2="14" y2="6" stroke="black" stroke-width="0.1"/>
  <line x1="14" y1="6" x2="16" y2="6" stroke="black" stroke-width="0.1"/>
  <line x1="16" y1="6" x2="16" y2="18" stroke="black" stroke-width="0.1"/>

<circle cx="0" cy="0" r="0.25" fill="red"/>
</svg>
