<?xml version="1.0" encoding="UTF-8"?>
<svg version="1.1" xmlns="http://www.w3.org/2000/svg" width="400" height="400" viewBox="-4 -4 8 8">
<polygon fill="#ffd" points="0.75,0.0 0.9375,0.24206145913796354 2.9364959787847074,0.7582000014692146 2.750158715468014,1.0089068818003464 2.0861024039492158,0.7652951299308707 1.8638975697835551,1.2097048604328895 2.817807423760933,1.8288104408459078 2.762679125174777,1.921394641580926 1.1427426221351054,0.7947573537833942 0.8232233047033631,0.8232233047033631 0.7947573537833942,1.1427426221351054 1.921394641580926,2.762679125174777 1.8288104408459078,2.817807423760933 1.2097048604328895,1.8638975697835551 0.7652951299308707,2.0861024039492158 1.0089068818003464,2.750158715468014 0.7582000014692146,2.9364959787847074 0.24206145913796354,0.9375 0.0,0.75 -0.24206145913796354,0.9375 -0.7582000014692146,2.9364959787847074 -1.0089068818003464,2.750158715468014 -0.7652951299308707,2.0861024039492158 -1.2097048604328895,1.8638975697835551 -1.8288104408459078,2.817807423760933 -1.921394641580926,2.762679125174777 -0.7947573537833942,1.1427426221351054 -0.8232233047033631,0.8232233047033631 -1.1427426221351054,0.7947573537833942 -2.762679125174777,1.921394641580926 -2.817807423760933,1.8288104408459078 -1.8638975697835551,1.2097048604328895 -2.0861024039492158,0.7652951299308707 -2.750158715468014,1.0089068818003464 -2.9364959787847074,0.7582000014692146 -0.9375,0.24206145913796354 -0.75,0.0 -0.9375,-0.24206145913796354 -2.9364959787847074,-0.7582000014692146 -2.750158715468014,-1.0089068818003464 -2.0861024039492158,-0.7652951299308707 -1.8638975697835551,-1.2097048604328895 -2.817807423760933,-1.8288104408459078 -2.762679125174777,-1.921394641580926 -1.1427426221351054,-0.7947573537833942 -0.8232233047033631,-0.8232233047033631 -0.7947573537833942,-1.1427426221351054 -1.921394641580926,-2.762679125174777 -1.8288104408459078,-2.817807423760933 -1.2097048604328895,-1.8638975697835551 -0.7652951299308707,-2.0861024039492158 -1.0089068818003464,-2.750158715468014 -0.7582000014692146,-2.9364959787847074 -0.24206145913796354,-0.9375 -0.0,-0.75 0.24206145913796354,-0.9375 0.7582000014692146,-2.9364959787847074 1.0089068818003464,-2.750158715468014 0.7652951299308707,-2.0861024039492158 1.2097048604328895,-1.8638975697835551 1.8288104408459078,-2.817807423760933 1.921394641580926,-2.762679125174777 0.7947573537833942,-1.1427426221351054 0.8232233047033631,-0.8232233047033631 1.1427426221351054,-0.7947573537833942 2.762679125174777,-1.921394641580926 2.817807423760933,-1.8288104408459078 1.8638975697835551,-1.2097048604328895 2.0861024039492158,-0.7652951299308707 2.750158715468014,-1.0089068818003464 2.9364959787847074,-0.7582000014692146 0.9375,-0.24206145913796354 0.75,-0.0"/>
<line x1="0" y1="0" x2="2.762679125174777" y2="1.921394641580926" stroke="red" stroke-width="0.02"/>
<line x1="0" y1="0" x2="1.921394641580926" y2="2.762679125174777" stroke="red" stroke-width="0.02"/>
<line x1="0" y1="0" x2="-1.921394641580926" y2="2.762679125174777" stroke="red" stroke-width="0.02"/>
<line x1="0" y1="0" x2="-2.762679125174777" y2="1.921394641580926" stroke="red" stroke-width="0.02"/>
<line x1="0" y1="0" x2="-2.762679125174777" y2="-1.921394641580926" stroke="red" stroke-width="0.02"/>
<line x1="0" y1="0" x2="-1.921394641580926" y2="-2.762679125174777" stroke="red" stroke-width="0.02"/>
<line x1="0" y1="0" x2="1.921394641580926" y2="-2.762679125174777" stroke="red" stroke-width="0.02"/>
<line x1="0" y1="0" x2="2.762679125174777" y2="-1.921394641580926" stroke="red" stroke-width="0.02"/>
<line x1="0" y1="0" stroke="blue" stroke-width="0.01">
<animate attributeName="x2" dur="20s" repeatCount="indefinite" values="0.75;0.9375;2.9364959787847074;2.750158715468014;2.0861024039492158;1.8638975697835551;2.817807423760933;2.762679125174777;1.1427426221351054;0.8232233047033631;0.7947573537833942;1.921394641580926;1.8288104408459078;1.2097048604328895;0.7652951299308707;1.0089068818003464;0.7582000014692146;0.24206145913796354;0.0;-0.24206145913796354;-0.7582000014692146;-1.0089068818003464;-0.7652951299308707;-1.2097048604328895;-1.8288104408459078;-1.921394641580926;-0.7947573537833942;-0.8232233047033631;-1.1427426221351054;-2.762679125174777;-2.817807423760933;-1.8638975697835551;-2.0861024039492158;-2.750158715468014;-2.9364959787847074;-0.9375;-0.75;-0.9375;-2.9364959787847074;-2.750158715468014;-2.0861024039492158;-1.8638975697835551;-2.817807423760933;-2.762679125174777;-1.1427426221351054;-0.8232233047033631;-0.7947573537833942;-1.921394641580926;-1.8288104408459078;-1.2097048604328895;-0.7652951299308707;-1.0089068818003464;-0.7582000014692146;-0.24206145913796354;-0.0;0.24206145913796354;0.7582000014692146;1.0089068818003464;0.7652951299308707;1.2097048604328895;1.8288104408459078;1.921394641580926;0.7947573537833942;0.8232233047033631;1.1427426221351054;2.762679125174777;2.817807423760933;1.8638975697835551;2.0861024039492158;2.750158715468014;2.9364959787847074;0.9375;0.75"/><animate attributeName="y2" dur="20s" repeatCount="indefinite" values="0.0;0.24206145913796354;0.7582000014692146;1.0089068818003464;0.7652951299308707;1.2097048604328895;1.8288104408459078;1.921394641580926;0.7947573537833942;0.8232233047033631;1.1427426221351054;2.762679125174777;2.817807423760933;1.8638975697835551;2.0861024039492158;2.750158715468014;2.9364959787847074;0.9375;0.75;0.9375;2.9364959787847074;2.750158715468014;2.0861024039492158;1.8638975697835551;2.817807423760933;2.762679125174777;1.1427426221351054;0.8232233047033631;0.7947573537833942;1.921394641580926;1.8288104408459078;1.2097048604328895;0.7652951299308707;1.0089068818003464;0.7582000014692146;0.24206145913796354;0.0;-0.24206145913796354;-0.7582000014692146;-1.0089068818003464;-0.7652951299308707;-1.2097048604328895;-1.8288104408459078;-1.921394641580926;-0.7947573537833942;-0.8232233047033631;-1.1427426221351054;-2.762679125174777;-2.817807423760933;-1.8638975697835551;-2.0861024039492158;-2.750158715468014;-2.9364959787847074;-0.9375;-0.75;-0.9375;-2.9364959787847074;-2.750158715468014;-2.0861024039492158;-1.8638975697835551;-2.817807423760933;-2.762679125174777;-1.1427426221351054;-0.8232233047033631;-0.7947573537833942;-1.921394641580926;-1.8288104408459078;-1.2097048604328895;-0.7652951299308707;-1.0089068818003464;-0.7582000014692146;-0.24206145913796354;-0.0"/></line>
<circle cx="-4" cy="-4" r="0.25" fill="#ddd"/>
<circle cx="-4" cy="-3" r="0.25" fill="#ddd"/>
<circle cx="-4" cy="-2" r="0.25" fill="#ddd"/>
<circle cx="-4" cy="-1" r="0.25" fill="#ddd"/>
<circle cx="-4" cy="0" r="0.25" fill="#ddd"/>
<circle cx="-4" cy="1" r="0.25" fill="#ddd"/>
<circle cx="-4" cy="2" r="0.25" fill="#ddd"/>
<circle cx="-4" cy="3" r="0.25" fill="#ddd"/>
<circle cx="-4" cy="4" r="0.25" fill="#ddd"/>
<circle cx="-3" cy="-4" r="0.25" fill="#ddd"/>
<circle cx="-3" cy="-3" r="0.25" fill="#ddd"/>
<circle cx="-3" cy="-2" r="0.25" fill="black"/>
<circle cx="-3" cy="-1" r="0.25" fill="black"/>
<circle cx="-3" cy="0" r="0.25" fill="#ddd"/>
<circle cx="-3" cy="1" r="0.25" fill="black"/>
<circle cx="-3" cy="2" r="0.25" fill="black"/>
<circle cx="-3" cy="3" r="0.25" fill="#ddd"/>
<circle cx="-3" cy="4" r="0.25" fill="#ddd"/>
<circle cx="-2" cy="-4" r="0.25" fill="#ddd"/>
<circle cx="-2" cy="-3" r="0.25" fill="black"/>
<circle cx="-2" cy="-2" r="0.25" fill="#ddd"/>
<circle cx="-2" cy="-1" r="0.25" fill="black"/>
<circle cx="-2" cy="0" r="0.25" fill="#ddd"/>
<circle cx="-2" cy="1" r="0.25" fill="black"/>
<circle cx="-2" cy="2" r="0.25" fill="#ddd"/>
<circle cx="-2" cy="3" r="0.25" fill="black"/>
<circle cx="-2" cy="4" r="0.25" fill="#ddd"/>
<circle cx="-1" cy="-4" r="0.25" fill="#ddd"/>
<circle cx="-1" cy="-3" r="0.25" fill="black"/>
<circle cx="-1" cy="-2" r="0.25" fill="black"/>
<circle cx="-1" cy="-1" r="0.25" fill="black"/>
<circle cx="-1" cy="0" r="0.25" fill="black"/>
<circle cx="-1" cy="1" r="0.25" fill="black"/>
<circle cx="-1" cy="2" r="0.25" fill="black"/>
<circle cx="-1" cy="3" r="0.25" fill="black"/>
<circle cx="-1" cy="4" r="0.25" fill="#ddd"/>
<circle cx="0" cy="-4" r="0.25" fill="#ddd"/>
<circle cx="0" cy="-3" r="0.25" fill="#ddd"/>
<circle cx="0" cy="-2" r="0.25" fill="#ddd"/>
<circle cx="0" cy="-1" r="0.25" fill="black"/>
<circle cx="0" cy="1" r="0.25" fill="black"/>
<circle cx="0" cy="2" r="0.25" fill="#ddd"/>
<circle cx="0" cy="3" r="0.25" fill="#ddd"/>
<circle cx="0" cy="4" r="0.25" fill="#ddd"/>
<circle cx="1" cy="-4" r="0.25" fill="#ddd"/>
<circle cx="1" cy="-3" r="0.25" fill="black"/>
<circle cx="1" cy="-2" r="0.25" fill="black"/>
<circle cx="1" cy="-1" r="0.25" fill="black"/>
<circle cx="1" cy="0" r="0.25" fill="black"/>
<circle cx="1" cy="1" r="0.25" fill="black"/>
<circle cx="1" cy="2" r="0.25" fill="black"/>
<circle cx="1" cy="3" r="0.25" fill="black"/>
<circle cx="1" cy="4" r="0.25" fill="#ddd"/>
<circle cx="2" cy="-4" r="0.25" fill="#ddd"/>
<circle cx="2" cy="-3" r="0.25" fill="black"/>
<circle cx="2" cy="-2" r="0.25" fill="#ddd"/>
<circle cx="2" cy="-1" r="0.25" fill="black"/>
<circle cx="2" cy="0" r="0.25" fill="#ddd"/>
<circle cx="2" cy="1" r="0.25" fill="black"/>
<circle cx="2" cy="2" r="0.25" fill="#ddd"/>
<circle cx="2" cy="3" r="0.25" fill="black"/>
<circle cx="2" cy="4" r="0.25" fill="#ddd"/>
<circle cx="3" cy="-4" r="0.25" fill="#ddd"/>
<circle cx="3" cy="-3" r="0.25" fill="#ddd"/>
<circle cx="3" cy="-2" r="0.25" fill="black"/>
<circle cx="3" cy="-1" r="0.25" fill="black"/>
<circle cx="3" cy="0" r="0.25" fill="#ddd"/>
<circle cx="3" cy="1" r="0.25" fill="black"/>
<circle cx="3" cy="2" r="0.25" fill="black"/>
<circle cx="3" cy="3" r="0.25" fill="#ddd"/>
<circle cx="3" cy="4" r="0.25" fill="#ddd"/>
<circle cx="4" cy="-4" r="0.25" fill="#ddd"/>
<circle cx="4" cy="-3" r="0.25" fill="#ddd"/>
<circle cx="4" cy="-2" r="0.25" fill="#ddd"/>
<circle cx="4" cy="-1" r="0.25" fill="#ddd"/>
<circle cx="4" cy="0" r="0.25" fill="#ddd"/>
<circle cx="4" cy="1" r="0.25" fill="#ddd"/>
<circle cx="4" cy="2" r="0.25" fill="#ddd"/>
<circle cx="4" cy="3" r="0.25" fill="#ddd"/>
<circle cx="4" cy="4" r="0.25" fill="#ddd"/>
<circle cx="1" cy="0" r="0.25" fill="#ccf"><animate attributeName="fill-opacity" dur="20s" repeatCount="indefinite" values="1;0;0;0;0;0;0;0;0;0;0;0;0;0;0;0;0;0;0;0;0;0;0;0;0;0;0;0;0;0;0;0;0"/></circle>
<circle cx="3" cy="1" r="0.25" fill="#ccf"><animate attributeName="fill-opacity" dur="20s" repeatCount="indefinite" values="0;1;0;0;0;0;0;0;0;0;0;0;0;0;0;0;0;0;0;0;0;0;0;0;0;0;0;0;0;0;0;0;0"/></circle>
<circle cx="2" cy="1" r="0.25" fill="#ccf"><animate attributeName="fill-opacity" dur="20s" repeatCount="indefinite" values="0;0;1;0;0;0;0;0;0;0;0;0;0;0;0;0;0;0;0;0;0;0;0;0;0;0;0;0;0;0;0;0;0"/></circle>
<circle cx="3" cy="2" r="0.25" fill="#ccf"><animate attributeName="fill-opacity" dur="20s" repeatCount="indefinite" values="0;0;0;1;0;0;0;0;0;0;0;0;0;0;0;0;0;0;0;0;0;0;0;0;0;0;0;0;0;0;0;0;0"/></circle>
<circle cx="1" cy="1" r="0.25" fill="#ccf"><animate attributeName="fill-opacity" dur="20s" repeatCount="indefinite" values="0;0;0;0;1;0;0;0;0;0;0;0;0;0;0;0;0;0;0;0;0;0;0;0;0;0;0;0;0;0;0;0;0"/></circle>
<circle cx="2" cy="3" r="0.25" fill="#ccf"><animate attributeName="fill-opacity" dur="20s" repeatCount="indefinite" values="0;0;0;0;0;1;0;0;0;0;0;0;0;0;0;0;0;0;0;0;0;0;0;0;0;0;0;0;0;0;0;0;0"/></circle>
<circle cx="1" cy="2" r="0.25" fill="#ccf"><animate attributeName="fill-opacity" dur="20s" repeatCount="indefinite" values="0;0;0;0;0;0;1;0;0;0;0;0;0;0;0;0;0;0;0;0;0;0;0;0;0;0;0;0;0;0;0;0;0"/></circle>
<circle cx="1" cy="3" r="0.25" fill="#ccf"><animate attributeName="fill-opacity" dur="20s" repeatCount="indefinite" values="0;0;0;0;0;0;0;1;0;0;0;0;0;0;0;0;0;0;0;0;0;0;0;0;0;0;0;0;0;0;0;0;0"/></circle>
<circle cx="0" cy="1" r="0.25" fill="#ccf"><animate attributeName="fill-opacity" dur="20s" repeatCount="indefinite" values="0;0;0;0;0;0;0;0;1;0;0;0;0;0;0;0;0;0;0;0;0;0;0;0;0;0;0;0;0;0;0;0;0"/></circle>
<circle cx="-1" cy="3" r="0.25" fill="#ccf"><animate attributeName="fill-opacity" dur="20s" repeatCount="indefinite" values="0;0;0;0;0;0;0;0;0;1;0;0;0;0;0;0;0;0;0;0;0;0;0;0;0;0;0;0;0;0;0;0;0"/></circle>
<circle cx="-1" cy="2" r="0.25" fill="#ccf"><animate attributeName="fill-opacity" dur="20s" repeatCount="indefinite" values="0;0;0;0;0;0;0;0;0;0;1;0;0;0;0;0;0;0;0;0;0;0;0;0;0;0;0;0;0;0;0;0;0"/></circle>
<circle cx="-2" cy="3" r="0.25" fill="#ccf"><animate attributeName="fill-opacity" dur="20s" repeatCount="indefinite" values="0;0;0;0;0;0;0;0;0;0;0;1;0;0;0;0;0;0;0;0;0;0;0;0;0;0;0;0;0;0;0;0;0"/></circle>
<circle cx="-1" cy="1" r="0.25" fill="#ccf"><animate attributeName="fill-opacity" dur="20s" repeatCount="indefinite" values="0;0;0;0;0;0;0;0;0;0;0;0;1;0;0;0;0;0;0;0;0;0;0;0;0;0;0;0;0;0;0;0;0"/></circle>
<circle cx="-3" cy="2" r="0.25" fill="#ccf"><animate attributeName="fill-opacity" dur="20s" repeatCount="indefinite" values="0;0;0;0;0;0;0;0;0;0;0;0;0;1;0;0;0;0;0;0;0;0;0;0;0;0;0;0;0;0;0;0;0"/></circle>
<circle cx="-2" cy="1" r="0.25" fill="#ccf"><animate attributeName="fill-opacity" dur="20s" repeatCount="indefinite" values="0;0;0;0;0;0;0;0;0;0;0;0;0;0;1;0;0;0;0;0;0;0;0;0;0;0;0;0;0;0;0;0;0"/></circle>
<circle cx="-3" cy="1" r="0.25" fill="#ccf"><animate attributeName="fill-opacity" dur="20s" repeatCount="indefinite" values="0;0;0;0;0;0;0;0;0;0;0;0;0;0;0;1;0;0;0;0;0;0;0;0;0;0;0;0;0;0;0;0;0"/></circle>
<circle cx="-1" cy="0" r="0.25" fill="#ccf"><animate attributeName="fill-opacity" dur="20s" repeatCount="indefinite" values="0;0;0;0;0;0;0;0;0;0;0;0;0;0;0;0;1;0;0;0;0;0;0;0;0;0;0;0;0;0;0;0;0"/></circle>
<circle cx="-3" cy="-1" r="0.25" fill="#ccf"><animate attributeName="fill-opacity" dur="20s" repeatCount="indefinite" values="0;0;0;0;0;0;0;0;0;0;0;0;0;0;0;0;0;1;0;0;0;0;0;0;0;0;0;0;0;0;0;0;0"/></circle>
<circle cx="-2" cy="-1" r="0.25" fill="#ccf"><animate attributeName="fill-opacity" dur="20s" repeatCount="indefinite" values="0;0;0;0;0;0;0;0;0;0;0;0;0;0;0;0;0;0;1;0;0;0;0;0;0;0;0;0;0;0;0;0;0"/></circle>
<circle cx="-3" cy="-2" r="0.25" fill="#ccf"><animate attributeName="fill-opacity" dur="20s" repeatCount="indefinite" values="0;0;0;0;0;0;0;0;0;0;0;0;0;0;0;0;0;0;0;1;0;0;0;0;0;0;0;0;0;0;0;0;0"/></circle>
<circle cx="-1" cy="-1" r="0.25" fill="#ccf"><animate attributeName="fill-opacity" dur="20s" repeatCount="indefinite" values="0;0;0;0;0;0;0;0;0;0;0;0;0;0;0;0;0;0;0;0;1;0;0;0;0;0;0;0;0;0;0;0;0"/></circle>
<circle cx="-2" cy="-3" r="0.25" fill="#ccf"><animate attributeName="fill-opacity" dur="20s" repeatCount="indefinite" values="0;0;0;0;0;0;0;0;0;0;0;0;0;0;0;0;0;0;0;0;0;1;0;0;0;0;0;0;0;0;0;0;0"/></circle>
<circle cx="-1" cy="-2" r="0.25" fill="#ccf"><animate attributeName="fill-opacity" dur="20s" repeatCount="indefinite" values="0;0;0;0;0;0;0;0;0;0;0;0;0;0;0;0;0;0;0;0;0;0;1;0;0;0;0;0;0;0;0;0;0"/></circle>
<circle cx="-1" cy="-3" r="0.25" fill="#ccf"><animate attributeName="fill-opacity" dur="20s" repeatCount="indefinite" values="0;0;0;0;0;0;0;0;0;0;0;0;0;0;0;0;0;0;0;0;0;0;0;1;0;0;0;0;0;0;0;0;0"/></circle>
<circle cx="0" cy="-1" r="0.25" fill="#ccf"><animate attributeName="fill-opacity" dur="20s" repeatCount="indefinite" values="0;0;0;0;0;0;0;0;0;0;0;0;0;0;0;0;0;0;0;0;0;0;0;0;1;0;0;0;0;0;0;0;0"/></circle>
<circle cx="1" cy="-3" r="0.25" fill="#ccf"><animate attributeName="fill-opacity" dur="20s" repeatCount="indefinite" values="0;0;0;0;0;0;0;0;0;0;0;0;0;0;0;0;0;0;0;0;0;0;0;0;0;1;0;0;0;0;0;0;0"/></circle>
<circle cx="1" cy="-2" r="0.25" fill="#ccf"><animate attributeName="fill-opacity" dur="20s" repeatCount="indefinite" values="0;0;0;0;0;0;0;0;0;0;0;0;0;0;0;0;0;0;0;0;0;0;0;0;0;0;1;0;0;0;0;0;0"/></circle>
<circle cx="2" cy="-3" r="0.25" fill="#ccf"><animate attributeName="fill-opacity" dur="20s" repeatCount="indefinite" values="0;0;0;0;0;0;0;0;0;0;0;0;0;0;0;0;0;0;0;0;0;0;0;0;0;0;0;1;0;0;0;0;0"/></circle>
<circle cx="1" cy="-1" r="0.25" fill="#ccf"><animate attributeName="fill-opacity" dur="20s" repeatCount="indefinite" values="0;0;0;0;0;0;0;0;0;0;0;0;0;0;0;0;0;0;0;0;0;0;0;0;0;0;0;0;1;0;0;0;0"/></circle>
<circle cx="3" cy="-2" r="0.25" fill="#ccf"><animate attributeName="fill-opacity" dur="20s" repeatCount="indefinite" values="0;0;0;0;0;0;0;0;0;0;0;0;0;0;0;0;0;0;0;0;0;0;0;0;0;0;0;0;0;1;0;0;0"/></circle>
<circle cx="2" cy="-1" r="0.25" fill="#ccf"><animate attributeName="fill-opacity" dur="20s" repeatCount="indefinite" values="0;0;0;0;0;0;0;0;0;0;0;0;0;0;0;0;0;0;0;0;0;0;0;0;0;0;0;0;0;0;1;0;0"/></circle>
<circle cx="3" cy="-1" r="0.25" fill="#ccf"><animate attributeName="fill-opacity" dur="20s" repeatCount="indefinite" values="0;0;0;0;0;0;0;0;0;0;0;0;0;0;0;0;0;0;0;0;0;0;0;0;0;0;0;0;0;0;0;1;0"/></circle>
<circle cx="1" cy="0" r="0.25" fill="#ccf"><animate attributeName="fill-opacity" dur="20s" repeatCount="indefinite" values="0;0;0;0;0;0;0;0;0;0;0;0;0;0;0;0;0;0;0;0;0;0;0;0;0;0;0;0;0;0;0;0;1"/></circle>
</svg>
