<?xml version="1.0" encoding="UTF-8"?>
<svg version="1.1" xmlns="http://www.w3.org/2000/svg" width="200" height="200" viewBox="-0.1 -0.1 1.2 1.2">
  <g transform="scale(1,-1)">
    <g transform="translate(0,-1)">
      <line x1="0" y1="0" x2="1.1" y2="0" stroke="black" stroke-width="0.01"/>
      <line x1="0" y1="0" x2="0" y2="1.1" stroke="black" stroke-width="0.01"/>
      <circle cx="0" cy="0" r="1" fill="none" stroke="black" stroke-width="0.01"/>
      <circle cx="0.2139" cy="0.7565" r="0.2139" fill="none" stroke="black" stroke-width="0.01"/>
      <polyline points="0.0,0.0 2.0e-2,0.1414213562373095 4.0e-2,0.2 6.0e-2,0.2449489742783178 7.999999999999999e-2,0.282842712474619 9.999999999999998e-2,0.3162277660168379 0.11999999999999997,0.3464101615137754 0.13999999999999996,0.37416573867739406 0.15999999999999995,0.3999999999999999 0.17999999999999994,0.42426406871192845 0.19999999999999993,0.44721359549995787 0.21999999999999992,0.46904157598234286 0.2399999999999999,0.48989794855663554 0.2599999999999999,0.5099019513592784 0.2799999999999999,0.529150262212918 0.29999999999999993,0.5477225575051661 0.31999999999999995,0.565685424949238 0.33999999999999997,0.58309518948453 0.36,0.6 0.38,0.6164414002968976 0.4,0.6324555320336759 0.42000000000000004,0.6480740698407861 0.44000000000000006,0.66332495807108 0.4600000000000001,0.6782329983125269 0.4800000000000001,0.692820323027551 0.5000000000000001,0.7071067811865476 0.5200000000000001,0.7211102550927979 0.5400000000000001,0.7348469228349536 0.5600000000000002,0.7483314773547883 0.5800000000000002,0.761577310586391 0.6000000000000002,0.7745966692414835 0.6200000000000002,0.7874007874011812 0.6400000000000002,0.8000000000000002 0.6600000000000003,0.8124038404635961 0.6800000000000003,0.8246211251235323 0.7000000000000003,0.8366600265340757 0.7200000000000003,0.8485281374238572 0.7400000000000003,0.8602325267042629 0.7600000000000003,0.8717797887081349 0.7800000000000004,0.8831760866327849 0.8000000000000004,0.8944271909999161 0.8200000000000004,0.9055385138137418 0.8400000000000004,0.9165151389911682 0.8600000000000004,0.9273618495495706 0.8800000000000004,0.9380831519646862 0.9000000000000005,0.948683298050514 0.9200000000000005,0.9591663046625442 0.9400000000000005,0.9695359714832661 0.9600000000000005,0.9797958971132715 0.9800000000000005,0.9899494936611668 1.0000000000000004,1.0000000000000002" stroke="black" stroke-width="0.01" fill="none"/>
      <circle cx="0.3490" cy="0.5908" r="0.02" fill="red"/>
      <circle cx="0" cy="0.7565" r="0.02" fill="red"/>
      <circle cx="0.2721" cy="0.9623" r="0.02" fill="red"/>
    </g>
  </g>
</svg>
